<?xml version="1.0" encoding="UTF-8"?>
<svg id="_레이어_1" data-name="레이어 1" xmlns="http://www.w3.org/2000/svg" xmlns:xlink="http://www.w3.org/1999/xlink" viewBox="0 0 54 54">
  <defs>
    <style>
      .cls-1 {
        clip-path: url(#clippath-7);
      }

      .cls-2, .cls-3 {
        fill: #fae100;
      }

      .cls-4 {
        clip-path: url(#clippath-1);
      }

      .cls-5 {
        clip-path: url(#clippath-4);
      }

      .cls-3, .cls-6 {
        stroke-width: 0px;
      }

      .cls-7 {
        clip-path: url(#clippath-10);
      }

      .cls-6 {
        fill: #371d1e;
      }
    </style>
    <clipPath id="clippath-1">
      <path class="cls-3" d="M13.42,22.41h2s.01,5.48,0,6.76c0,.93,2.08.95,2.07.01v-6.7s.68,0,2,0c1.24,0,1.24-1.95,0-1.95-1.4,0-6.07-.04-6.07-.04-1.17,0-1.17,1.91,0,1.91"/>
    </clipPath>
    <clipPath id="clippath-4">
      <path class="cls-3" d="M22.97,22.77l1.11,3.48h-2.32l1.2-3.48ZM21.73,21.14c-.49,1.08-2.27,6.19-2.85,7.55-.43.98,1.41,1.78,1.84.8l.4-1.4h3.65s-.13.06.36,1.34c.39,1.04,2.29.32,1.9-.72-.56-1.48-2.5-6.81-2.85-7.57-.16-.35-.75-.6-1.31-.6-.47,0-.93.17-1.12.6"/>
    </clipPath>
    <clipPath id="clippath-7">
      <path class="cls-3" d="M27.72,21.46c0,1.74,0,7.33,0,7.33,0,0-.16,1.11.79,1.11s3.07-.01,4.01-.01.93-2,0-2-2.65,0-2.65,0c0,0,0-5.18,0-6.43,0-.61-.54-.91-1.08-.91s-1.08.31-1.08.92"/>
    </clipPath>
    <clipPath id="clippath-10">
      <path class="cls-3" d="M33.71,21.18c.02.76-.02,7.65-.02,8.16,0,.81,2.05.8,2.05,0,0-.93,0-2.71,0-2.71l.6-.48,2.63,3.59c.53.7,2.21-.57,1.67-1.27l-2.79-3.68s1.9-2.05,2.64-2.79c.44-.43-.91-1.79-1.35-1.36-.42.42-3.39,3.39-3.39,3.39,0,0,.03-1.87,0-2.9-.01-.39-.49-.58-.98-.58-.53,0-1.07.22-1.05.64"/>
    </clipPath>
  </defs>
  <circle class="cls-3" cx="27" cy="27" r="27"/>
  <path class="cls-6" d="M26.95,9.9c-10.71,0-19.39,6.86-19.39,15.33,0,5.51,3.68,10.34,9.2,13.05-.41,1.51-1.47,5.49-1.68,6.34-.26,1.05.39,1.04.81.76.33-.22,5.31-3.61,7.46-5.07,1.17.17,2.37.26,3.6.26,10.71,0,19.39-6.86,19.39-15.33s-8.68-15.33-19.39-15.33"/>
  <g>
    <g>
      <path class="cls-2" d="M13.42,22.41h2s.01,5.48,0,6.76c0,.93,2.08.95,2.07.01v-6.7s.68,0,2,0c1.24,0,1.24-1.95,0-1.95-1.4,0-6.07-.04-6.07-.04-1.17,0-1.17,1.91,0,1.91"/>
      <g class="cls-4">
        <rect class="cls-3" x="12.24" y="20.5" width="8.48" height="9.62"/>
      </g>
    </g>
    <g>
      <path class="cls-2" d="M22.97,22.77l1.11,3.48h-2.32l1.2-3.48ZM21.73,21.14c-.49,1.08-2.27,6.19-2.85,7.55-.43.98,1.41,1.78,1.84.8l.4-1.4h3.65s-.13.06.36,1.34c.39,1.04,2.29.32,1.9-.72-.56-1.48-2.5-6.81-2.85-7.57-.16-.35-.75-.6-1.31-.6-.47,0-.93.17-1.12.6"/>
      <g class="cls-5">
        <rect class="cls-3" x="18.45" y="20.54" width="8.96" height="9.92"/>
      </g>
    </g>
    <g>
      <path class="cls-2" d="M27.72,21.46c0,1.74,0,7.33,0,7.33,0,0-.16,1.11.79,1.11s3.07-.01,4.01-.01.93-2,0-2-2.65,0-2.65,0c0,0,0-5.18,0-6.43,0-.61-.54-.91-1.08-.91s-1.08.31-1.08.92"/>
      <g class="cls-1">
        <rect class="cls-3" x="27.57" y="20.54" width="5.9" height="9.36"/>
      </g>
    </g>
    <g>
      <path class="cls-2" d="M33.71,21.18c.02.76-.02,7.65-.02,8.16,0,.81,2.05.8,2.05,0,0-.93,0-2.71,0-2.71l.6-.48,2.63,3.59c.53.7,2.21-.57,1.67-1.27l-2.79-3.68s1.9-2.05,2.64-2.79c.44-.43-.91-1.79-1.35-1.36-.42.42-3.39,3.39-3.39,3.39,0,0,.03-1.87,0-2.9-.01-.39-.49-.58-.98-.58-.53,0-1.07.22-1.05.64"/>
      <g class="cls-7">
        <rect class="cls-3" x="33.69" y="20.2" width="7.49" height="10.24"/>
      </g>
    </g>
  </g>
</svg>